<svg xmlns="http://www.w3.org/2000/svg" xmlns:xlink="http://www.w3.org/1999/xlink" xmlns:lucid="lucid" width="2250.33" height="942"><g transform="translate(-1168.6666666666667 -339)" lucid:page-tab-id="6KUJ-qT3n4cn"><path d="M1200 726a6 6 0 0 1 6-6h168a6 6 0 0 1 6 6v108a6 6 0 0 1-6 6h-168a6 6 0 0 1-6-6z" stroke="#cc4e00" stroke-width="2" fill="#cc4e00"/><use xlink:href="#a" transform="matrix(1,0,0,1,1212,732.0000000000001) translate(-5.0023871527777715 56.08376736111111)"/><path d="M1169.67 346a6 6 0 0 1 6-6h228.66a6 6 0 0 1 6 6v108a6 6 0 0 1-6 6h-228.66a6 6 0 0 1-6-6z" stroke="#cc4e00" stroke-width="2" fill="#cc4e00"/><use xlink:href="#b" transform="matrix(1,0,0,1,1181.6666666666667,352) translate(-5.0199652777777715 56.08376736111111)"/><path d="M1780 726a6 6 0 0 1 6-6h148a6 6 0 0 1 6 6v108a6 6 0 0 1-6 6h-148a6 6 0 0 1-6-6z" stroke="#cc4e00" stroke-width="2" fill="#cc4e00"/><use xlink:href="#c" transform="matrix(1,0,0,1,1792,732) translate(21.70551215277778 57.52777777777778)"/><path d="M1769.67 406a6 6 0 0 1 6-6h168.66a6 6 0 0 1 6 6v108a6 6 0 0 1-6 6h-168.66a6 6 0 0 1-6-6z" stroke="#cc4e00" stroke-width="2" fill="#cc4e00"/><use xlink:href="#d" transform="matrix(1,0,0,1,1781.6666666666667,412) translate(1.4980468750000284 57.52777777777778)"/><path d="M2220.67 726a6 6 0 0 1 6-6h148a6 6 0 0 1 6 6v108a6 6 0 0 1-6 6h-148a6 6 0 0 1-6-6z" stroke="#cc4e00" stroke-width="2" fill="#cc4e00"/><use xlink:href="#e" transform="matrix(1,0,0,1,2232.6666666666665,732.0000000000001) translate(20.994791666666664 57.52777777777778)"/><path d="M2020 1166a6 6 0 0 1 6-6h148a6 6 0 0 1 6 6v108a6 6 0 0 1-6 6h-148a6 6 0 0 1-6-6z" stroke="#cc4e00" stroke-width="2" fill="#cc4e00"/><use xlink:href="#f" transform="matrix(1,0,0,1,2032,1172) translate(6.308376736111114 57.52777777777778)"/><path d="M2620.67 726a6 6 0 0 1 6-6h148a6 6 0 0 1 6 6v108a6 6 0 0 1-6 6h-148a6 6 0 0 1-6-6z" stroke="#cc4e00" stroke-width="2" fill="#cc4e00"/><use xlink:href="#g" transform="matrix(1,0,0,1,2632.6666666666665,732.0000000000001) translate(17.403211805555564 57.52777777777778)"/><path d="M2577.33 1039.8a6 6 0 0 1 6-6h233.34a6 6 0 0 1 6 6v108a6 6 0 0 1-6 6h-233.34a6 6 0 0 1-6-6z" stroke="#cc4e00" stroke-width="2" fill="#cc4e00"/><use xlink:href="#h" transform="matrix(1,0,0,1,2589.333333333333,1045.7960416666665) translate(3.0464409722222143 57.52777777777778)"/><path d="M2620.67 426a6 6 0 0 1 6-6h148a6 6 0 0 1 6 6v108a6 6 0 0 1-6 6h-148a6 6 0 0 1-6-6z" stroke="#cc4e00" stroke-width="2" fill="#cc4e00"/><use xlink:href="#i" transform="matrix(1,0,0,1,2632.6666666666665,432) translate(45.859157986111114 57.52777777777778)"/><path d="M1285.2 543.6a8 8 0 0 1 9.6 0l70.4 52.8a4.5 4.5 0 0 1 0 7.2l-70.4 52.8a8 8 0 0 1-9.6 0l-70.4-52.8a4.5 4.5 0 0 1 0-7.2z" stroke="#fff3d9" stroke-width="2" fill="#fff3d9"/><use xlink:href="#j" transform="matrix(1,0,0,1,1215,545) translate(31.67275173611111 62.77777777777778)"/><path d="M1595.2 663.6a8 8 0 0 1 9.6 0l70.4 52.8a4.5 4.5 0 0 1 0 7.2l-70.4 52.8a8 8 0 0 1-9.6 0l-70.4-52.8a4.5 4.5 0 0 1 0-7.2z" stroke="#fff3d9" stroke-width="2" fill="#fff3d9"/><use xlink:href="#k" transform="matrix(1,0,0,1,1525,665) translate(62.662335069444445 38.71527777777778)"/><use xlink:href="#l" transform="matrix(1,0,0,1,1525,665) translate(25.032126736111113 70.98090277777777)"/><use xlink:href="#m" transform="matrix(1,0,0,1,1525,665) translate(98.41537326388888 70.98090277777777)"/><path d="M1595.2 803.6a8 8 0 0 1 9.6 0l70.4 52.8a4.5 4.5 0 0 1 0 7.2l-70.4 52.8a8 8 0 0 1-9.6 0l-70.4-52.8a4.5 4.5 0 0 1 0-7.2z" stroke="#fff3d9" stroke-width="2" fill="#fff3d9"/><use xlink:href="#k" transform="matrix(1,0,0,1,1525,805) translate(62.662335069444445 35.27777777777778)"/><use xlink:href="#n" transform="matrix(1,0,0,1,1525,805) translate(19.899748263888892 67.54340277777777)"/><use xlink:href="#m" transform="matrix(1,0,0,1,1525,805) translate(103.54775173611111 67.54340277777777)"/><path d="M1855.2 563.6a8 8 0 0 1 9.6 0l70.4 52.8a4.5 4.5 0 0 1 0 7.2l-70.4 52.8a8 8 0 0 1-9.6 0l-70.4-52.8a4.5 4.5 0 0 1 0-7.2z" stroke="#fff3d9" stroke-width="2" fill="#fff3d9"/><use xlink:href="#j" transform="matrix(1,0,0,1,1785,565) translate(31.67275173611111 62.77777777777778)"/><path d="M2075.53 723.6a8 8 0 0 1 9.6 0l70.4 52.8a4.5 4.5 0 0 1 0 7.2l-70.4 52.8a8 8 0 0 1-9.6 0l-70.4-52.8a4.5 4.5 0 0 1 0-7.2z" stroke="#fff3d9" stroke-width="2" fill="#fff3d9"/><use xlink:href="#o" transform="matrix(1,0,0,1,2005.3333333333333,725) translate(49.15864583333333 62.77777777777778)"/><path d="M2495.87 723.6a8 8 0 0 1 9.6 0l70.4 52.8a4.5 4.5 0 0 1 0 7.2l-70.4 52.8a8 8 0 0 1-9.6 0l-70.4-52.8a4.5 4.5 0 0 1 0-7.2z" stroke="#fff3d9" stroke-width="2" fill="#fff3d9"/><use xlink:href="#p" transform="matrix(1,0,0,1,2425.6666666666665,725) translate(36.3114236111111 45.59027777777778)"/><use xlink:href="#q" transform="matrix(1,0,0,1,2425.6666666666665,725) translate(45.59961805555555 77.85590277777777)"/><path d="M2695.52 573.08a10.03 10.03 0 0 1 10.3 0l90.03 53.84a3.6 3.6 0 0 1 0 6.16l-90.03 53.84a10.03 10.03 0 0 1-10.3 0l-90.04-53.84a3.6 3.6 0 0 1 0-6.16z" stroke="#fff3d9" stroke-width="2" fill="#fff3d9"/><use xlink:href="#r" transform="matrix(1,0,0,1,2605.333333333333,575) translate(47.12631076388889 45.59027777777778)"/><use xlink:href="#s" transform="matrix(1,0,0,1,2605.333333333333,575) translate(89.26585069444445 77.85590277777777)"/><path d="M2695.87 880.5a8 8 0 0 1 9.6 0l70.4 52.8a4.5 4.5 0 0 1 0 7.2l-70.4 52.8a8 8 0 0 1-9.6 0l-70.4-52.8a4.5 4.5 0 0 1 0-7.2z" stroke="#fff3d9" stroke-width="2" fill="#fff3d9"/><use xlink:href="#t" transform="matrix(1,0,0,1,2625.6666666666665,881.8980208333334) translate(35.058168402777774 62.77777777777778)"/><path d="M1285.2 943.6a8 8 0 0 1 9.6 0l70.4 52.8a4.5 4.5 0 0 1 0 7.2l-70.4 52.8a8 8 0 0 1-9.6 0l-70.4-52.8a4.5 4.5 0 0 1 0-7.2z" stroke="#fff3d9" stroke-width="2" fill="#fff3d9"/><use xlink:href="#u" transform="matrix(1,0,0,1,1215,945) translate(22.059036458333335 55.53777777777778)"/><use xlink:href="#v" transform="matrix(1,0,0,1,1215,945) translate(61.962465277777774 87.80340277777776)"/><path d="M1865.53 943.6a8 8 0 0 1 9.6 0l70.4 52.8a4.5 4.5 0 0 1 0 7.2l-70.4 52.8a8 8 0 0 1-9.6 0l-70.4-52.8a4.5 4.5 0 0 1 0-7.2z" stroke="#fff3d9" stroke-width="2" fill="#fff3d9"/><use xlink:href="#u" transform="matrix(1,0,0,1,1795.3333333333333,945) translate(22.059036458333335 55.53777777777778)"/><use xlink:href="#v" transform="matrix(1,0,0,1,1795.3333333333333,945) translate(61.962465277777774 87.80340277777776)"/><path d="M2295.87 943.6a8 8 0 0 1 9.6 0l70.4 52.8a4.5 4.5 0 0 1 0 7.2l-70.4 52.8a8 8 0 0 1-9.6 0l-70.4-52.8a4.5 4.5 0 0 1 0-7.2z" stroke="#fff3d9" stroke-width="2" fill="#fff3d9"/><use xlink:href="#w" transform="matrix(1,0,0,1,2225.6666666666665,945) translate(21.635859375000006 57.53777777777778)"/><use xlink:href="#v" transform="matrix(1,0,0,1,2225.6666666666665,945) translate(61.962465277777774 89.80340277777776)"/><path d="M3115.2 1083.6a8 8 0 0 1 9.6 0l70.4 52.8a4.5 4.5 0 0 1 0 7.2l-70.4 52.8a8 8 0 0 1-9.6 0l-70.4-52.8a4.5 4.5 0 0 1 0-7.2z" stroke="#fff3d9" stroke-width="2" fill="#fff3d9"/><use xlink:href="#w" transform="matrix(1,0,0,1,3045,1085) translate(21.635859375000006 57.53777777777778)"/><use xlink:href="#v" transform="matrix(1,0,0,1,3045,1085) translate(61.962465277777774 89.80340277777776)"/><path d="M1290 461.5v79" stroke="#3a414a" fill="none"/><path d="M1290.47 461.5h-.94v-.5h.94zM1290.47 541.03l-.47-.03-.47.03v-.54h.94z" stroke="#3a414a" stroke-width=".05" fill="#3a414a"/><path d="M1290 659.5v59" stroke="#3a414a" fill="none"/><path d="M1290 659l.47-.03v.54h-.94V659zM1290.47 719h-.94v-.5h.94z" stroke="#3a414a" stroke-width=".05" fill="#3a414a"/><path d="M1290 841.5v99" stroke="#3a414a" fill="none"/><path d="M1290.47 841.5h-.94v-.5h.94zM1290.47 941.03l-.47-.03-.47.03v-.54h.94z" stroke="#3a414a" stroke-width=".05" fill="#3a414a"/><path d="M1326.6 1034.3l691.92 185.57" stroke="#3a414a" fill="none"/><path d="M1326.74 1033.83l-.25.92-.86-.23.96-.72zM2019 1219.5v1l-.62-.17.25-.92z" stroke="#3a414a" stroke-width=".05" fill="#3a414a"/><path d="M1381.5 739.93l140-19.86" stroke="#3a414a" fill="none"/><path d="M1381.57 740.4l-.57.08v-.96l.44-.06zM1522 720l.04.47-.48.07-.14-.94.62-.1z" stroke="#3a414a" stroke-width=".05" fill="#3a414a"/><path d="M1381.48 820.14l140.04 39.72" stroke="#3a414a" fill="none"/><path d="M1381.62 819.68l-.26.92-.36-.1v-1zM1522.04 859.52l-.04.48.04.5-.67-.18.26-.92z" stroke="#3a414a" stroke-width=".05" fill="#3a414a"/><path d="M1678.47 859.8l100.07-40.6" stroke="#3a414a" fill="none"/><path d="M1678.66 860.25l-.7.28.04-.53-.04-.5.34-.13zM1779 819.52l-.3.12-.35-.88.65-.27z" stroke="#3a414a" stroke-width=".05" fill="#3a414a"/><path d="M1678.5 720.12l100 23.76" stroke="#3a414a" fill="none"/><path d="M1678.6 719.66l-.2.92-.44-.1.04-.48-.04-.5zM1779 743.5v1l-.6-.16.2-.92z" stroke="#3a414a" stroke-width=".05" fill="#3a414a"/><path d="M1906.56 1034.7l129.4 123.95" stroke="#3a414a" fill="none"/><path d="M1906.9 1034.37l-.66.68-.43-.4.78-.6zM2037 1159h-1.37l.65-.7z" stroke="#3a414a" stroke-width=".05" fill="#3a414a"/><path d="M2262.07 1032.92l-125.72 125.73" stroke="#3a414a" fill="none"/><path d="M2262.8 1032.86l-.4.4-.67-.66.32-.32zM2136.7 1158.97l-.03.03h-1.34l.7-.7z" stroke="#3a414a" stroke-width=".05" fill="#3a414a"/><path d="M1870.33 940.5v-99" stroke="#3a414a" fill="none"/><path d="M1870.8 941.03l-.47-.03-.47.03v-.54h.95zM1870.8 841.5h-.94v-.5h.95z" stroke="#3a414a" stroke-width=".05" fill="#3a414a"/><path d="M2181.5 1219.97l901.35-46.18" stroke="#3a414a" fill="none"/><path d="M2181.54 1220.45l-.54.03v-.96l.5-.02zM3083.94 1174.2l-1.08.06-.05-.9z" stroke="#3a414a" stroke-width=".05" fill="#3a414a"/><path d="M3119.6 1080.7l-337.54-264.04" stroke="#3a414a" fill="none"/><path d="M3120.84 1081.05l-.84-.05-.7.04.6-.73zM2782.36 816.3l-.58.74-.1-.1v-1.2z" stroke="#3a414a" stroke-width=".05" fill="#3a414a"/><path d="M1860 718.5v-39" stroke="#3a414a" fill="none"/><path d="M1860.47 719h-.94v-.5h.94zM1860 679l.47-.03v.54h-.94V679z" stroke="#3a414a" stroke-width=".05" fill="#3a414a"/><path d="M1860 560.5v-39" stroke="#3a414a" fill="none"/><path d="M1860.47 561.03l-.47-.03-.47.03v-.54h.94zM1860.47 521.5h-.94v-.5h.94z" stroke="#3a414a" stroke-width=".05" fill="#3a414a"/><path d="M1941.5 780h60.33" stroke="#3a414a" fill="none"/><path d="M1941.5 780.48h-.5v-.96h.5zM2002.33 780l.04.48h-.55v-.96h.55z" stroke="#3a414a" stroke-width=".05" fill="#3a414a"/><path d="M2158.84 780h60.33" stroke="#3a414a" fill="none"/><path d="M2158.85 780.48h-.56l.04-.48-.05-.48h.55zM2219.67 780.48h-.52v-.96h.52z" stroke="#3a414a" stroke-width=".05" fill="#3a414a"/><path d="M2382.17 780h40" stroke="#3a414a" fill="none"/><path d="M2382.18 780.48h-.5v-.96h.5zM2422.66 780l.05.48h-.55v-.96h.56z" stroke="#3a414a" stroke-width=".05" fill="#3a414a"/><path d="M2579.17 780h40" stroke="#3a414a" fill="none"/><path d="M2579.18 780.48h-.55l.04-.48-.04-.48h.55zM2619.67 780.48h-.52v-.96h.52z" stroke="#3a414a" stroke-width=".05" fill="#3a414a"/><path d="M2700.67 877.4v-35.9" stroke="#3a414a" fill="none"/><path d="M2701.14 877.93l-.47-.03-.48.03v-.55h.94zM2701.14 841.5h-.95v-.5h.94z" stroke="#3a414a" stroke-width=".05" fill="#3a414a"/><path d="M2700.4 996.38l-.14 35.92" stroke="#3a414a" fill="none"/><path d="M2700.67 995.9h.22v.5h-.96v-.55zM2700.74 1032.3v.5h-.96v-.52z" stroke="#3a414a" stroke-width=".05" fill="#3a414a"/><path d="M2700.67 718.5v-28.66" stroke="#3a414a" fill="none"/><path d="M2701.14 719h-.95v-.5h.94zM2700.67 689.34l.47-.02v.54h-.95v-.54z" stroke="#3a414a" stroke-width=".05" fill="#3a414a"/><path d="M2700.67 570.16V541.5" stroke="#3a414a" fill="none"/><path d="M2701.14 570.68l-.47-.02-.48.02v-.54h.94zM2701.14 541.5h-.95v-.5h.94z" stroke="#3a414a" stroke-width=".05" fill="#3a414a"/><path d="M2300.67 841.5v99" stroke="#3a414a" fill="none"/><path d="M2301.14 841.5h-.95v-.5h.94zM2301.14 941.03l-.47-.03-.48.03v-.54h.94z" stroke="#3a414a" stroke-width=".05" fill="#3a414a"/><path d="M2160.33 749.1a6 6 0 0 1 6-6h36.78a6 6 0 0 1 6 6V774a6 6 0 0 1-6 6h-36.77a6 6 0 0 1-6-6z" fill="none"/><use xlink:href="#x" transform="matrix(1,0,0,1,2165.333333333333,748.1019791666666) translate(0 21.58376736111111)"/><path d="M1937.5 749.1a6 6 0 0 1 6-6h50.83a6 6 0 0 1 6 6V774a6 6 0 0 1-6 6h-50.82a6 6 0 0 1-6-6z" fill="none"/><use xlink:href="#y" transform="matrix(1,0,0,1,1942.5130034722222,748.1019791666666) translate(0 21.58376736111111)"/><path d="M1860 526a6 6 0 0 1 6-6h36.78a6 6 0 0 1 6 6v24.9a6 6 0 0 1-6 6H1866a6 6 0 0 1-6-6z" fill="none"/><use xlink:href="#x" transform="matrix(1,0,0,1,1865,525) translate(0 21.58376736111111)"/><path d="M1860 689.1a6 6 0 0 1 6-6h50.82a6 6 0 0 1 6 6V714a6 6 0 0 1-6 6H1866a6 6 0 0 1-6-6z" fill="none"/><use xlink:href="#y" transform="matrix(1,0,0,1,1865,688.1019791666668) translate(0 21.58376736111111)"/><path d="M1717.18 746a6 6 0 0 1 6-6h41.2a6 6 0 0 1 6 6v24.9a6 6 0 0 1-6 6h-41.2a6 6 0 0 1-6-6z" fill="none"/><use xlink:href="#z" transform="matrix(1,0,0,1,1722.179670138889,745) translate(0 21.58376736111111)"/><path d="M1380 746a6 6 0 0 1 6-6h50.82a6 6 0 0 1 6 6v24.9a6 6 0 0 1-6 6H1386a6 6 0 0 1-6-6z" fill="none"/><use xlink:href="#y" transform="matrix(1,0,0,1,1385,745) translate(0 21.58376736111111)"/><path d="M1727.5 842.9a6 6 0 0 1 6-6h41.2a6 6 0 0 1 6 6v24.9a6 6 0 0 1-6 6h-41.2a6 6 0 0 1-6-6z" fill="none"/><use xlink:href="#z" transform="matrix(1,0,0,1,1732.5130034722222,841.8980208333334) translate(0 21.58376736111111)"/><path d="M1380 842.9a6 6 0 0 1 6-6h50.82a6 6 0 0 1 6 6v24.9a6 6 0 0 1-6 6H1386a6 6 0 0 1-6-6z" fill="none"/><use xlink:href="#y" transform="matrix(1,0,0,1,1385,841.8980208333334) translate(0 21.58376736111111)"/><path d="M1240 466a6 6 0 0 1 6-6h36.78a6 6 0 0 1 6 6v24.9a6 6 0 0 1-6 6H1246a6 6 0 0 1-6-6z" fill="none"/><use xlink:href="#x" transform="matrix(1,0,0,1,1245,465) translate(0 21.58376736111111)"/><path d="M1225.96 689.1a6 6 0 0 1 6-6h50.82a6 6 0 0 1 6 6V714a6 6 0 0 1-6 6h-50.82a6 6 0 0 1-6-6z" fill="none"/><use xlink:href="#y" transform="matrix(1,0,0,1,1230.959201388889,688.1019791666668) translate(0 21.58376736111111)"/><path d="M2380.67 749.1a6 6 0 0 1 6-6h41.2a6 6 0 0 1 6 6V774a6 6 0 0 1-6 6h-41.2a6 6 0 0 1-6-6z" fill="none"/><use xlink:href="#z" transform="matrix(1,0,0,1,2385.6666666666665,748.1019791666666) translate(0 21.58376736111111)"/><path d="M2567.47 749.1a6 6 0 0 1 6-6h41.2a6 6 0 0 1 6 6V774a6 6 0 0 1-6 6h-41.2a6 6 0 0 1-6-6z" fill="none"/><use xlink:href="#z" transform="matrix(1,0,0,1,2572.4709027777776,748.1019791666666) translate(0 21.58376736111111)"/><path d="M2700 546a6 6 0 0 1 6-6h50.82a6 6 0 0 1 6 6v24.9a6 6 0 0 1-6 6H2706a6 6 0 0 1-6-6z" fill="none"/><use xlink:href="#y" transform="matrix(1,0,0,1,2705,545) translate(0 21.58376736111111)"/><path d="M2700 688.55a6 6 0 0 1 6-6h50.82a6 6 0 0 1 6 6v24.9a6 6 0 0 1-6 6H2706a6 6 0 0 1-6-6z" fill="none"/><use xlink:href="#y" transform="matrix(1,0,0,1,2705,687.5509895833333) translate(0 21.58376736111111)"/><path d="M2700 846a6 6 0 0 1 6-6h36.78a6 6 0 0 1 6 6v24.9a6 6 0 0 1-6 6H2706a6 6 0 0 1-6-6z" fill="none"/><use xlink:href="#x" transform="matrix(1,0,0,1,2705,845) translate(0 21.58376736111111)"/><path d="M2700 1001.55a6 6 0 0 1 6-6h50.82a6 6 0 0 1 6 6v24.9a6 6 0 0 1-6 6H2706a6 6 0 0 1-6-6z" fill="none"/><use xlink:href="#y" transform="matrix(1,0,0,1,2705,1000.5509895833333) translate(0 21.58376736111111)"/><path d="M2300 846a6 6 0 0 1 6-6h36.78a6 6 0 0 1 6 6v24.9a6 6 0 0 1-6 6H2306a6 6 0 0 1-6-6z" fill="none"/><use xlink:href="#x" transform="matrix(1,0,0,1,2305,845.0000000000001) translate(0 21.58376736111111)"/><path d="M1867.02 846a6 6 0 0 1 6-6h36.78a6 6 0 0 1 6 6v24.9a6 6 0 0 1-6 6h-36.78a6 6 0 0 1-6-6z" fill="none"/><use xlink:href="#x" transform="matrix(1,0,0,1,1872.0203993055554,845) translate(0 21.58376736111111)"/><path d="M1288.78 846a6 6 0 0 1 6-6h36.78a6 6 0 0 1 6 6v24.9a6 6 0 0 1-6 6h-36.78a6 6 0 0 1-6-6z" fill="none"/><use xlink:href="#x" transform="matrix(1,0,0,1,1293.77953125,845) translate(0 21.58376736111111)"/><path d="M2788.13 799.26a6 6 0 0 1 6-6h41.2a6 6 0 0 1 6 6v24.9a6 6 0 0 1-6 6h-41.2a6 6 0 0 1-6-6z" fill="none"/><use xlink:href="#z" transform="matrix(1,0,0,1,2793.1334268180917,798.2626406150736) translate(0 21.58376736111111)"/><path d="M2020 1126a6 6 0 0 1 6-6h50.82a6 6 0 0 1 6 6v24.9a6 6 0 0 1-6 6H2026a6 6 0 0 1-6-6z" fill="none"/><use xlink:href="#y" transform="matrix(1,0,0,1,2025,1125) translate(0 21.58376736111111)"/><path d="M2160.33 1129.1a6 6 0 0 1 6-6h50.82a6 6 0 0 1 6 6v24.9a6 6 0 0 1-6 6h-50.82a6 6 0 0 1-6-6z" fill="none"/><use xlink:href="#y" transform="matrix(1,0,0,1,2165.333333333333,1128.1019791666668) translate(0 21.58376736111111)"/><path d="M2180 1226.22a6 6 0 0 1 6-6h50.82a6 6 0 0 1 6 6v24.9a6 6 0 0 1-6 6H2186a6 6 0 0 1-6-6z" fill="none"/><use xlink:href="#y" transform="matrix(1,0,0,1,2185,1225.21765625) translate(0 21.58376736111111)"/><path d="M1960 1226.22a6 6 0 0 1 6-6h50.82a6 6 0 0 1 6 6v24.9a6 6 0 0 1-6 6H1966a6 6 0 0 1-6-6z" fill="none"/><use xlink:href="#y" transform="matrix(1,0,0,1,1965,1225.21765625) translate(0 21.58376736111111)"/><path d="M2951.7 723.08a10.03 10.03 0 0 1 10.3 0l90.03 53.84a3.6 3.6 0 0 1 0 6.16L2962 836.92a10.03 10.03 0 0 1-10.3 0l-90.04-53.84a3.6 3.6 0 0 1 0-6.16z" stroke="#fff3d9" stroke-width="2" fill="#fff3d9"/><use xlink:href="#A" transform="matrix(1,0,0,1,2861.5144399460196,725.0000000000001) translate(55.10157118055555 62.77777777777778)"/><path d="M2782.17 780h76.24" stroke="#3a414a" fill="none"/><path d="M2782.18 780.48h-.5v-.96h.5zM2858.9 780l.06.48h-.56v-.96h.56z" stroke="#3a414a" stroke-width=".05" fill="#3a414a"/><path d="M3113 725.45a6 6 0 0 1 6-6h293a6 6 0 0 1 6 6v108a6 6 0 0 1-6 6h-293a6 6 0 0 1-6-6z" stroke="#cc4e00" stroke-width="2" fill="#cc4e00"/><g><use xlink:href="#B" transform="matrix(1,0,0,1,3125,731.4490104166666) translate(-2.5447048611111143 56.08376736111111)"/></g><path d="M3055.26 779.82l56.24-.1" stroke="#3a414a" fill="none"/><path d="M3055.28 780.3h-.53l.03-.3-.06-.65h.56zM3112 780.2h-.5v-.95h.5z" stroke="#3a414a" stroke-width=".05" fill="#3a414a"/><path d="M2778.5 749.1a6 6 0 0 1 6-6h36.8a6 6 0 0 1 6 6V774a6 6 0 0 1-6 6h-36.8a6 6 0 0 1-6-6z" fill="none"/><g><use xlink:href="#x" transform="matrix(1,0,0,1,2783.5088608458695,748.1019791666666) translate(0 21.58376736111111)"/></g><path d="M3054.6 749.1a6 6 0 0 1 6-6h50.82a6 6 0 0 1 6 6V774a6 6 0 0 1-6 6h-50.82a6 6 0 0 1-6-6z" fill="none"/><g><use xlink:href="#y" transform="matrix(1,0,0,1,3059.5959027777776,748.1019791666666) translate(0 21.58376736111111)"/></g><defs><path fill="#fff" d="M75-1237v-253h1217v253H837V0H531v-1237H75" id="C"/><path fill="#fff" d="M135 0v-1490h581c339 0 533 192 533 485 0 204-94 351-264 424L1302 0H964L680-532H440V0H135zm305-779h220c186 0 274-77 274-226 0-150-88-233-275-233H440v459" id="D"/><path fill="#fff" d="M49 0l509-1490h400L1480 0h-339l-115-346H497L386 0H49zm524-585h374c-75-213-124-402-192-666-66 268-110 453-182 666" id="E"/><path fill="#fff" d="M135 0v-1490h340l471 754c59 97 122 210 187 365-32-387-14-721-19-1119h312V0h-341C855-382 627-689 427-1113c32 420 16 695 20 1113H135" id="F"/><path fill="#fff" d="M681 22C323 22 94-145 85-462h297c10 151 131 226 296 226 163 0 271-77 271-190 0-102-95-149-257-189l-164-41c-252-61-403-188-403-405 0-269 236-449 560-449 330 0 546 183 551 445H941c-11-119-106-188-259-188-156 0-244 72-244 172-3 156 226 185 373 221 250 61 445 186 445 436 0 271-213 446-575 446" id="G"/><path fill="#fff" d="M786 20C389 20 94-260 94-744c0-487 299-766 692-766 339 0 597 194 641 529h-309c-28-162-156-258-326-258-233 0-388 179-388 495 0 323 157 493 387 493 170 0 298-97 328-259h309c-34 277-266 530-642 530" id="H"/><path fill="#fff" d="M440-1490V0H135v-1490h305" id="I"/><path fill="#fff" d="M789 20C394 20 94-260 94-744c0-487 300-766 695-766s695 279 695 766c0 485-300 764-695 764zm0-271c231 0 385-174 385-493 0-321-154-495-385-495s-385 175-385 495c0 319 154 493 385 493" id="J"/><g id="a"><use transform="matrix(0.010850694444444444,0,0,0.010850694444444444,0,0)" xlink:href="#C"/><use transform="matrix(0.010850694444444444,0,0,0.010850694444444444,14.832899305555555,0)" xlink:href="#D"/><use transform="matrix(0.010850694444444444,0,0,0.010850694444444444,29.427083333333332,0)" xlink:href="#E"/><use transform="matrix(0.010850694444444444,0,0,0.010850694444444444,46.017795138888886,0)" xlink:href="#F"/><use transform="matrix(0.010850694444444444,0,0,0.010850694444444444,62.955729166666664,0)" xlink:href="#G"/><use transform="matrix(0.010850694444444444,0,0,0.010850694444444444,77.17013888888889,0)" xlink:href="#E"/><use transform="matrix(0.010850694444444444,0,0,0.010850694444444444,92.82769097222221,0)" xlink:href="#H"/><use transform="matrix(0.010850694444444444,0,0,0.010850694444444444,109.26649305555556,0)" xlink:href="#H"/><use transform="matrix(0.010850694444444444,0,0,0.010850694444444444,125.70529513888887,0)" xlink:href="#I"/><use transform="matrix(0.010850694444444444,0,0,0.010850694444444444,131.94444444444443,0)" xlink:href="#J"/><use transform="matrix(0.010850694444444444,0,0,0.010850694444444444,149.06684027777777,0)" xlink:href="#F"/></g><path fill="#fff" d="M135 0v-1490h581c339 0 533 210 533 503 0 295-197 500-540 500H440V0H135zm305-733h220c186 0 274-104 274-254s-88-251-275-251H440v505" id="K"/><path fill="#fff" d="M975 0v231H0V0h975" id="L"/><path fill="#fff" d="M789 20C394 20 94-260 94-744c0-487 300-766 695-766s695 279 695 766c0 485-300 764-695 764zm0-271c231 0 385-174 385-493 0-321-154-495-385-495s-385 175-385 495c0 319 154 493 385 493zM681-1632l139-311h278l-207 311H681" id="M"/><g id="b"><use transform="matrix(0.010850694444444444,0,0,0.010850694444444444,0,0)" xlink:href="#C"/><use transform="matrix(0.010850694444444444,0,0,0.010850694444444444,14.832899305555555,0)" xlink:href="#I"/><use transform="matrix(0.010850694444444444,0,0,0.010850694444444444,21.07204861111111,0)" xlink:href="#K"/><use transform="matrix(0.010850694444444444,0,0,0.010850694444444444,35.470920138888886,0)" xlink:href="#J"/><use transform="matrix(0.010850694444444444,0,0,0.010850694444444444,51.71440972222221,0)" xlink:href="#L"/><use transform="matrix(0.010850694444444444,0,0,0.010850694444444444,61.035156249999986,0)" xlink:href="#C"/><use transform="matrix(0.010850694444444444,0,0,0.010850694444444444,75.86805555555554,0)" xlink:href="#D"/><use transform="matrix(0.010850694444444444,0,0,0.010850694444444444,90.46223958333331,0)" xlink:href="#E"/><use transform="matrix(0.010850694444444444,0,0,0.010850694444444444,107.05295138888887,0)" xlink:href="#F"/><use transform="matrix(0.010850694444444444,0,0,0.010850694444444444,123.99088541666666,0)" xlink:href="#G"/><use transform="matrix(0.010850694444444444,0,0,0.010850694444444444,138.20529513888889,0)" xlink:href="#E"/><use transform="matrix(0.010850694444444444,0,0,0.010850694444444444,153.8628472222222,0)" xlink:href="#H"/><use transform="matrix(0.010850694444444444,0,0,0.010850694444444444,170.30164930555554,0)" xlink:href="#H"/><use transform="matrix(0.010850694444444444,0,0,0.010850694444444444,186.74045138888889,0)" xlink:href="#I"/><use transform="matrix(0.010850694444444444,0,0,0.010850694444444444,192.97960069444443,0)" xlink:href="#M"/><use transform="matrix(0.010850694444444444,0,0,0.010850694444444444,210.10199652777777,0)" xlink:href="#F"/></g><path fill="#fff" d="M750 21c-371 0-615-218-615-544v-967h305v942c0 174 123 299 310 299s309-125 309-299v-942h306v967c0 326-247 544-615 544" id="N"/><path fill="#fff" d="M135 0v-1490h997v253H440v360h640v249H440v375h694V0H135" id="O"/><g id="c"><use transform="matrix(0.010850694444444444,0,0,0.010850694444444444,0,0)" xlink:href="#H"/><use transform="matrix(0.010850694444444444,0,0,0.010850694444444444,16.438802083333332,0)" xlink:href="#N"/><use transform="matrix(0.010850694444444444,0,0,0.010850694444444444,32.70399305555556,0)" xlink:href="#O"/><use transform="matrix(0.010850694444444444,0,0,0.010850694444444444,46.20225694444444,0)" xlink:href="#F"/><use transform="matrix(0.010850694444444444,0,0,0.010850694444444444,63.14019097222222,0)" xlink:href="#C"/><use transform="matrix(0.010850694444444444,0,0,0.010850694444444444,75.99826388888889,0)" xlink:href="#E"/></g><g id="d"><use transform="matrix(0.010850694444444444,0,0,0.010850694444444444,0,0)" xlink:href="#C"/><use transform="matrix(0.010850694444444444,0,0,0.010850694444444444,14.832899305555555,0)" xlink:href="#I"/><use transform="matrix(0.010850694444444444,0,0,0.010850694444444444,21.07204861111111,0)" xlink:href="#K"/><use transform="matrix(0.010850694444444444,0,0,0.010850694444444444,35.470920138888886,0)" xlink:href="#J"/><use transform="matrix(0.010850694444444444,0,0,0.010850694444444444,51.71440972222221,0)" xlink:href="#L"/><use transform="matrix(0.010850694444444444,0,0,0.010850694444444444,61.41493055555554,0)" xlink:href="#H"/><use transform="matrix(0.010850694444444444,0,0,0.010850694444444444,77.85373263888887,0)" xlink:href="#N"/><use transform="matrix(0.010850694444444444,0,0,0.010850694444444444,94.11892361111109,0)" xlink:href="#O"/><use transform="matrix(0.010850694444444444,0,0,0.010850694444444444,107.61718749999997,0)" xlink:href="#F"/><use transform="matrix(0.010850694444444444,0,0,0.010850694444444444,124.55512152777773,0)" xlink:href="#C"/><use transform="matrix(0.010850694444444444,0,0,0.010850694444444444,137.4131944444444,0)" xlink:href="#E"/></g><path fill="#fff" d="M135 0v-1490h305v1237h643V0H135" id="P"/><g id="e"><use transform="matrix(0.010850694444444444,0,0,0.010850694444444444,0,0)" xlink:href="#H"/><use transform="matrix(0.010850694444444444,0,0,0.010850694444444444,16.438802083333332,0)" xlink:href="#P"/><use transform="matrix(0.010850694444444444,0,0,0.010850694444444444,29.00390625,0)" xlink:href="#I"/><use transform="matrix(0.010850694444444444,0,0,0.010850694444444444,35.24305555555556,0)" xlink:href="#O"/><use transform="matrix(0.010850694444444444,0,0,0.010850694444444444,48.74131944444444,0)" xlink:href="#F"/><use transform="matrix(0.010850694444444444,0,0,0.010850694444444444,65.67925347222223,0)" xlink:href="#C"/><use transform="matrix(0.010850694444444444,0,0,0.010850694444444444,80.51215277777779,0)" xlink:href="#O"/></g><path fill="#fff" d="M659 0H135v-1490h529c448 0 721 280 721 744 0 466-273 746-726 746zM440-263h204c287 0 437-148 437-483 0-333-150-481-435-481H440v964" id="Q"/><g id="f"><use transform="matrix(0.010850694444444444,0,0,0.010850694444444444,0,0)" xlink:href="#E"/><use transform="matrix(0.010850694444444444,0,0,0.010850694444444444,16.156684027777775,0)" xlink:href="#N"/><use transform="matrix(0.010850694444444444,0,0,0.010850694444444444,32.421875,0)" xlink:href="#Q"/><use transform="matrix(0.010850694444444444,0,0,0.010850694444444444,48.47005208333333,0)" xlink:href="#I"/><use transform="matrix(0.010850694444444444,0,0,0.010850694444444444,54.709201388888886,0)" xlink:href="#C"/><use transform="matrix(0.010850694444444444,0,0,0.010850694444444444,68.83680555555556,0)" xlink:href="#J"/><use transform="matrix(0.010850694444444444,0,0,0.010850694444444444,85.95920138888889,0)" xlink:href="#D"/><use transform="matrix(0.010850694444444444,0,0,0.010850694444444444,100.55338541666666,0)" xlink:href="#I"/><use transform="matrix(0.010850694444444444,0,0,0.010850694444444444,106.79253472222221,0)" xlink:href="#E"/></g><g id="g"><use transform="matrix(0.010850694444444444,0,0,0.010850694444444444,0,0)" xlink:href="#N"/><use transform="matrix(0.010850694444444444,0,0,0.010850694444444444,16.26519097222222,0)" xlink:href="#G"/><use transform="matrix(0.010850694444444444,0,0,0.010850694444444444,30.81597222222222,0)" xlink:href="#N"/><use transform="matrix(0.010850694444444444,0,0,0.010850694444444444,46.647135416666664,0)" xlink:href="#E"/><use transform="matrix(0.010850694444444444,0,0,0.010850694444444444,63.23784722222221,0)" xlink:href="#D"/><use transform="matrix(0.010850694444444444,0,0,0.010850694444444444,77.83203124999999,0)" xlink:href="#I"/><use transform="matrix(0.010850694444444444,0,0,0.010850694444444444,84.07118055555554,0)" xlink:href="#J"/></g><path fill="#fff" d="M135 0v-1490h305c1 251 0 501-5 746 157-254 405-512 598-746h373L849-845 1422 0h-361L638-644 440-426V0H135" id="R"/><path fill="#fff" d="M571 0L49-1490h339c138 427 271 775 384 1244 111-471 237-815 371-1244h337L970 0H571" id="S"/><g id="h"><use transform="matrix(0.010850694444444444,0,0,0.010850694444444444,0,0)" xlink:href="#C"/><use transform="matrix(0.010850694444444444,0,0,0.010850694444444444,14.127604166666666,0)" xlink:href="#J"/><use transform="matrix(0.010850694444444444,0,0,0.010850694444444444,31.25,0)" xlink:href="#R"/><use transform="matrix(0.010850694444444444,0,0,0.010850694444444444,47.233072916666664,0)" xlink:href="#O"/><use transform="matrix(0.010850694444444444,0,0,0.010850694444444444,60.73133680555555,0)" xlink:href="#F"/><use transform="matrix(0.010850694444444444,0,0,0.010850694444444444,78.07074652777777,0)" xlink:href="#L"/><use transform="matrix(0.010850694444444444,0,0,0.010850694444444444,89.39887152777777,0)" xlink:href="#D"/><use transform="matrix(0.010850694444444444,0,0,0.010850694444444444,103.99305555555556,0)" xlink:href="#O"/><use transform="matrix(0.010850694444444444,0,0,0.010850694444444444,117.49131944444441,0)" xlink:href="#S"/><use transform="matrix(0.010850694444444444,0,0,0.010850694444444444,133.19227430555554,0)" xlink:href="#J"/><use transform="matrix(0.010850694444444444,0,0,0.010850694444444444,150.31467013888889,0)" xlink:href="#H"/><use transform="matrix(0.010850694444444444,0,0,0.010850694444444444,166.14583333333334,0)" xlink:href="#E"/><use transform="matrix(0.010850694444444444,0,0,0.010850694444444444,182.73654513888889,0)" xlink:href="#Q"/><use transform="matrix(0.010850694444444444,0,0,0.010850694444444444,198.78472222222223,0)" xlink:href="#J"/></g><g id="i"><use transform="matrix(0.010850694444444444,0,0,0.010850694444444444,0,0)" xlink:href="#D"/><use transform="matrix(0.010850694444444444,0,0,0.010850694444444444,14.594184027777777,0)" xlink:href="#J"/><use transform="matrix(0.010850694444444444,0,0,0.010850694444444444,31.716579861111104,0)" xlink:href="#P"/></g><path d="M613 24c-304 0-509-231-509-576 0-350 205-580 509-580 216 0 392 114 453 309l-173 49c-33-115-133-197-280-197-223 0-326 196-326 419 0 220 103 415 326 415 150 0 252-85 285-206l172 49C1010-95 832 24 613 24" id="T"/><path d="M338-1490V0H158v-1490h180" id="U"/><path d="M471 26C259 26 90-98 90-318c0-256 228-303 435-329 202-27 287-16 287-108 0-139-79-219-234-219-161 0-248 86-283 164l-173-57c86-203 278-265 451-265 150 0 419 46 419 395V0H815v-152h-12C765-73 660 26 471 26zm31-159c199 0 310-134 310-271v-155c-30 35-226 55-295 64-131 17-246 59-246 186 0 116 97 176 231 176" id="V"/><path d="M538 24C308 24 148-78 108-271l171-41c32 123 123 178 257 178 156 0 256-77 256-169 0-77-54-128-164-154l-186-44c-203-48-300-148-300-305 0-192 176-326 414-326 230 0 351 112 402 269l-163 42c-31-80-94-158-238-158-133 0-233 69-233 162 0 83 57 129 188 160l169 40c203 48 298 149 298 302 0 196-179 339-441 339" id="W"/><path d="M158 0v-1118h180V0H158zm91-1301c-68 0-125-53-125-119s57-119 125-119c69 0 126 53 126 119s-57 119-126 119" id="X"/><path d="M678-1118v154H420V0H240v-964H20v-154h220v-149c0-194 155-293 318-293 85 0 141 18 168 30l-50 154c-19-6-47-17-97-17-111 0-159 58-159 166v109h258" id="Y"/><g id="j"><use transform="matrix(0.010850694444444444,0,0,0.010850694444444444,0,0)" xlink:href="#T"/><use transform="matrix(0.010850694444444444,0,0,0.010850694444444444,12.6953125,0)" xlink:href="#U"/><use transform="matrix(0.010850694444444444,0,0,0.010850694444444444,18.077256944444443,0)" xlink:href="#V"/><use transform="matrix(0.010850694444444444,0,0,0.010850694444444444,30.555555555555554,0)" xlink:href="#W"/><use transform="matrix(0.010850694444444444,0,0,0.010850694444444444,42.28515625,0)" xlink:href="#X"/><use transform="matrix(0.010850694444444444,0,0,0.010850694444444444,47.66710069444444,0)" xlink:href="#Y"/><use transform="matrix(0.010850694444444444,0,0,0.010850694444444444,55.89192708333333,0)" xlink:href="#X"/><use transform="matrix(0.010850694444444444,0,0,0.010850694444444444,61.27387152777778,0)" xlink:href="#T"/><use transform="matrix(0.010850694444444444,0,0,0.010850694444444444,74.18619791666666,0)" xlink:href="#V"/></g><path d="M628 24c-324 0-524-230-524-574 0-343 198-582 503-582 237 0 487 146 487 559v75H286c9 234 145 362 343 362 132 0 231-58 273-172l174 48C1024-91 857 24 628 24zM287-650h624c-17-190-120-322-304-322-192 0-309 151-320 322" id="Z"/><g id="k"><use transform="matrix(0.010850694444444444,0,0,0.010850694444444444,0,0)" xlink:href="#Z"/><use transform="matrix(0.010850694444444444,0,0,0.010850694444444444,12.955729166666666,0)" xlink:href="#W"/></g><path d="M613 24c-304 0-509-231-509-576 0-350 205-580 509-580 305 0 511 230 511 580 0 345-206 576-511 576zm0-161c226 0 329-195 329-415 0-222-103-419-329-419-223 0-326 196-326 419 0 220 103 415 326 415" id="aa"/><path d="M158 0v-1118h174v172h12c41-113 157-188 290-188 26 0 70 2 91 3v181c-11-2-60-10-108-10-161 0-279 109-279 260V0H158" id="ab"/><path d="M611 442c-248 0-391-105-460-228l146-94c47 65 117 165 314 165 178 0 307-82 307-266v-224h-17C863-141 792-18 576-18c-268 0-472-195-472-546 0-346 197-568 476-568 216 0 288 133 326 193h17v-179h175V29c0 289-215 413-487 413zm-5-620c203 0 314-146 314-390 0-237-108-403-314-403-213 0-319 180-319 403 0 230 109 390 319 390" id="ac"/><path d="M338-670V0H158v-1118h173l1 207c72-158 192-221 342-221 226 0 378 139 378 422V0H872v-695c0-172-96-275-252-275-161 0-282 109-282 300" id="ad"/><g id="l"><use transform="matrix(0.010850694444444444,0,0,0.010850694444444444,0,0)" xlink:href="#aa"/><use transform="matrix(0.010850694444444444,0,0,0.010850694444444444,13.324652777777777,0)" xlink:href="#ab"/><use transform="matrix(0.010850694444444444,0,0,0.010850694444444444,22.037760416666664,0)" xlink:href="#X"/><use transform="matrix(0.010850694444444444,0,0,0.010850694444444444,27.419704861111104,0)" xlink:href="#ac"/><use transform="matrix(0.010850694444444444,0,0,0.010850694444444444,41.04817708333333,0)" xlink:href="#Z"/><use transform="matrix(0.010850694444444444,0,0,0.010850694444444444,54.003906249999986,0)" xlink:href="#ad"/></g><path d="M577 24c-279 0-473-224-473-580 0-354 195-576 474-576 218 0 287 134 324 193h14v-551h180V0H922v-173h-20C865-111 790 24 577 24zm27-161c203 0 314-172 314-421 0-247-108-413-314-413-212 0-317 181-317 413 0 235 108 421 317 421" id="ae"/><g id="m"><use transform="matrix(0.010850694444444444,0,0,0.010850694444444444,0,0)" xlink:href="#ae"/><use transform="matrix(0.010850694444444444,0,0,0.010850694444444444,13.606770833333332,0)" xlink:href="#Z"/></g><path d="M598-1118v154H368v674c0 100 37 144 132 144 23 0 62-6 92-12L629-6c-37 13-88 20-134 20-193 0-307-107-307-290v-688H20v-154h168v-266h180v266h230" id="af"/><g id="n"><use transform="matrix(0.010850694444444444,0,0,0.010850694444444444,0,0)" xlink:href="#ae"/><use transform="matrix(0.010850694444444444,0,0,0.010850694444444444,13.606770833333332,0)" xlink:href="#Z"/><use transform="matrix(0.010850694444444444,0,0,0.010850694444444444,26.5625,0)" xlink:href="#W"/><use transform="matrix(0.010850694444444444,0,0,0.010850694444444444,38.29210069444444,0)" xlink:href="#af"/><use transform="matrix(0.010850694444444444,0,0,0.010850694444444444,45.56206597222222,0)" xlink:href="#X"/><use transform="matrix(0.010850694444444444,0,0,0.010850694444444444,50.944010416666664,0)" xlink:href="#ad"/><use transform="matrix(0.010850694444444444,0,0,0.010850694444444444,64.07335069444444,0)" xlink:href="#aa"/></g><g id="o"><use transform="matrix(0.010850694444444444,0,0,0.010850694444444444,0,0)" xlink:href="#af"/><use transform="matrix(0.010850694444444444,0,0,0.010850694444444444,7.269965277777778,0)" xlink:href="#X"/><use transform="matrix(0.010850694444444444,0,0,0.010850694444444444,12.651909722222221,0)" xlink:href="#Z"/><use transform="matrix(0.010850694444444444,0,0,0.010850694444444444,25.60763888888889,0)" xlink:href="#ad"/><use transform="matrix(0.010850694444444444,0,0,0.010850694444444444,38.736979166666664,0)" xlink:href="#Z"/></g><g id="p"><use transform="matrix(0.010850694444444444,0,0,0.010850694444444444,0,0)" xlink:href="#V"/><use transform="matrix(0.010850694444444444,0,0,0.010850694444444444,12.47829861111111,0)" xlink:href="#T"/><use transform="matrix(0.010850694444444444,0,0,0.010850694444444444,25.17361111111111,0)" xlink:href="#T"/><use transform="matrix(0.010850694444444444,0,0,0.010850694444444444,37.868923611111114,0)" xlink:href="#Z"/><use transform="matrix(0.010850694444444444,0,0,0.010850694444444444,50.82465277777778,0)" xlink:href="#ae"/><use transform="matrix(0.010850694444444444,0,0,0.010850694444444444,64.43142361111111,0)" xlink:href="#Z"/></g><path d="M158 0v-1118h175l1 205c55-151 181-225 313-225 147 0 245 90 285 228 53-141 190-228 352-228 194 0 352 125 352 384V0h-181v-749c0-161-105-225-225-225-151 0-243 103-243 244V0H807v-767c0-124-93-207-219-207-131 0-250 92-250 270V0H158" id="ag"/><g id="q"><use transform="matrix(0.010850694444444444,0,0,0.010850694444444444,0,0)" xlink:href="#T"/><use transform="matrix(0.010850694444444444,0,0,0.010850694444444444,12.6953125,0)" xlink:href="#aa"/><use transform="matrix(0.010850694444444444,0,0,0.010850694444444444,26.01996527777778,0)" xlink:href="#ag"/><use transform="matrix(0.010850694444444444,0,0,0.010850694444444444,45.48611111111111,0)" xlink:href="#aa"/></g><g id="r"><use transform="matrix(0.010850694444444444,0,0,0.010850694444444444,0,0)" xlink:href="#V"/><use transform="matrix(0.010850694444444444,0,0,0.010850694444444444,12.47829861111111,0)" xlink:href="#W"/><use transform="matrix(0.010850694444444444,0,0,0.010850694444444444,24.207899305555554,0)" xlink:href="#X"/><use transform="matrix(0.010850694444444444,0,0,0.010850694444444444,29.58984375,0)" xlink:href="#ac"/><use transform="matrix(0.010850694444444444,0,0,0.010850694444444444,43.21831597222222,0)" xlink:href="#ad"/><use transform="matrix(0.010850694444444444,0,0,0.010850694444444444,56.34765625,0)" xlink:href="#V"/><use transform="matrix(0.010850694444444444,0,0,0.010850694444444444,68.82595486111111,0)" xlink:href="#ae"/><use transform="matrix(0.010850694444444444,0,0,0.010850694444444444,82.43272569444444,0)" xlink:href="#aa"/></g><use transform="matrix(0.010850694444444444,0,0,0.010850694444444444,0,0)" xlink:href="#V" id="s"/><path d="M481 0L54-1118h197c107 314 236 620 325 951 87-331 217-637 324-951h197L670 0H481" id="ah"/><g id="t"><use transform="matrix(0.010850694444444444,0,0,0.010850694444444444,0,0)" xlink:href="#X"/><use transform="matrix(0.010850694444444444,0,0,0.010850694444444444,5.381944444444445,0)" xlink:href="#ad"/><use transform="matrix(0.010850694444444444,0,0,0.010850694444444444,18.18576388888889,0)" xlink:href="#ah"/><use transform="matrix(0.010850694444444444,0,0,0.010850694444444444,30.56640625,0)" xlink:href="#V"/><use transform="matrix(0.010850694444444444,0,0,0.010850694444444444,43.044704861111114,0)" xlink:href="#U"/><use transform="matrix(0.010850694444444444,0,0,0.010850694444444444,48.42664930555556,0)" xlink:href="#X"/><use transform="matrix(0.010850694444444444,0,0,0.010850694444444444,53.80859375,0)" xlink:href="#ae"/><use transform="matrix(0.010850694444444444,0,0,0.010850694444444444,67.41536458333333,0)" xlink:href="#V"/></g><g id="u"><use transform="matrix(0.010850694444444444,0,0,0.010850694444444444,0,0)" xlink:href="#ab"/><use transform="matrix(0.010850694444444444,0,0,0.010850694444444444,7.996961805555555,0)" xlink:href="#Z"/><use transform="matrix(0.010850694444444444,0,0,0.010850694444444444,20.95269097222222,0)" xlink:href="#ac"/><use transform="matrix(0.010850694444444444,0,0,0.010850694444444444,34.58116319444444,0)" xlink:href="#X"/><use transform="matrix(0.010850694444444444,0,0,0.010850694444444444,39.963107638888886,0)" xlink:href="#W"/><use transform="matrix(0.010850694444444444,0,0,0.010850694444444444,51.69270833333333,0)" xlink:href="#af"/><use transform="matrix(0.010850694444444444,0,0,0.010850694444444444,58.96267361111111,0)" xlink:href="#ab"/><use transform="matrix(0.010850694444444444,0,0,0.010850694444444444,67.32855902777777,0)" xlink:href="#V"/><use transform="matrix(0.010850694444444444,0,0,0.010850694444444444,79.80685763888889,0)" xlink:href="#ae"/><use transform="matrix(0.010850694444444444,0,0,0.010850694444444444,93.41362847222221,0)" xlink:href="#V"/></g><g id="v"><use transform="matrix(0.010850694444444444,0,0,0.010850694444444444,0,0)" xlink:href="#Z"/><use transform="matrix(0.010850694444444444,0,0,0.010850694444444444,12.955729166666666,0)" xlink:href="#ad"/></g><g id="w"><use transform="matrix(0.010850694444444444,0,0,0.010850694444444444,0,0)" xlink:href="#ab"/><use transform="matrix(0.010850694444444444,0,0,0.010850694444444444,7.996961805555555,0)" xlink:href="#Z"/><use transform="matrix(0.010850694444444444,0,0,0.010850694444444444,20.95269097222222,0)" xlink:href="#ac"/><use transform="matrix(0.010850694444444444,0,0,0.010850694444444444,34.58116319444444,0)" xlink:href="#X"/><use transform="matrix(0.010850694444444444,0,0,0.010850694444444444,39.963107638888886,0)" xlink:href="#W"/><use transform="matrix(0.010850694444444444,0,0,0.010850694444444444,51.69270833333333,0)" xlink:href="#af"/><use transform="matrix(0.010850694444444444,0,0,0.010850694444444444,58.96267361111111,0)" xlink:href="#ab"/><use transform="matrix(0.010850694444444444,0,0,0.010850694444444444,67.32855902777777,0)" xlink:href="#V"/><use transform="matrix(0.010850694444444444,0,0,0.010850694444444444,79.80685763888889,0)" xlink:href="#ae"/><use transform="matrix(0.010850694444444444,0,0,0.010850694444444444,93.41362847222221,0)" xlink:href="#aa"/></g><path d="M218-607c0-325 108-727 258-974h175c-155 315-250 682-250 974 0 265 78 531 250 886H476C306-10 218-315 218-607" id="ai"/><path d="M653-1490V0H466v-1314h-10L96-1047v-204l324-239h233" id="aj"/><path d="M128 359l88-567h206L266 359H128" id="ak"/><path d="M96 279C273-86 346-350 346-607c0-292-95-659-250-974h175c150 246 258 650 258 974 0 297-91 602-258 886H96" id="al"/><g id="x"><use transform="matrix(0.010850694444444444,0,0,0.010850694444444444,0,0)" xlink:href="#ai"/><use transform="matrix(0.010850694444444444,0,0,0.010850694444444444,8.10546875,0)" xlink:href="#aj"/><use transform="matrix(0.010850694444444444,0,0,0.010850694444444444,17.14409722222222,0)" xlink:href="#ak"/><use transform="matrix(0.010850694444444444,0,0,0.010850694444444444,21.62543402777778,0)" xlink:href="#aj"/><use transform="matrix(0.010850694444444444,0,0,0.010850694444444444,30.6640625,0)" xlink:href="#al"/></g><path d="M646 20c-332 0-524-278-524-764 0-483 194-766 524-766s524 283 524 766c0 485-191 764-524 764zm0-166c218 0 341-220 341-598 0-380-123-601-341-601s-341 222-341 601c0 378 123 598 341 598" id="am"/><path d="M180 0v-1490h224l606 953c40 63 108 177 176 312-27-437-7-821-13-1265h190V0h-226C860-448 622-778 356-1262c27 476 11 792 15 1262H180" id="an"/><g id="y"><use transform="matrix(0.010850694444444444,0,0,0.010850694444444444,0,0)" xlink:href="#ai"/><use transform="matrix(0.010850694444444444,0,0,0.010850694444444444,8.10546875,0)" xlink:href="#am"/><use transform="matrix(0.010850694444444444,0,0,0.010850694444444444,21.56032986111111,0)" xlink:href="#ak"/><use transform="matrix(0.010850694444444444,0,0,0.010850694444444444,27.962239583333332,0)" xlink:href="#an"/><use transform="matrix(0.010850694444444444,0,0,0.010850694444444444,44.70486111111111,0)" xlink:href="#al"/></g><g id="z"><use transform="matrix(0.010850694444444444,0,0,0.010850694444444444,0,0)" xlink:href="#ai"/><use transform="matrix(0.010850694444444444,0,0,0.010850694444444444,8.10546875,0)" xlink:href="#am"/><use transform="matrix(0.010850694444444444,0,0,0.010850694444444444,21.56032986111111,0)" xlink:href="#ak"/><use transform="matrix(0.010850694444444444,0,0,0.010850694444444444,26.041666666666664,0)" xlink:href="#aj"/><use transform="matrix(0.010850694444444444,0,0,0.010850694444444444,35.080295138888886,0)" xlink:href="#al"/></g><g id="A"><use transform="matrix(0.010850694444444444,0,0,0.010850694444444444,0,0)" xlink:href="#ab"/><use transform="matrix(0.010850694444444444,0,0,0.010850694444444444,7.996961805555555,0)" xlink:href="#Z"/><use transform="matrix(0.010850694444444444,0,0,0.010850694444444444,20.95269097222222,0)" xlink:href="#ac"/><use transform="matrix(0.010850694444444444,0,0,0.010850694444444444,34.58116319444444,0)" xlink:href="#X"/><use transform="matrix(0.010850694444444444,0,0,0.010850694444444444,39.963107638888886,0)" xlink:href="#W"/><use transform="matrix(0.010850694444444444,0,0,0.010850694444444444,51.69270833333333,0)" xlink:href="#af"/><use transform="matrix(0.010850694444444444,0,0,0.010850694444444444,58.96267361111111,0)" xlink:href="#ab"/><use transform="matrix(0.010850694444444444,0,0,0.010850694444444444,67.32855902777777,0)" xlink:href="#V"/></g><path fill="#fff" d="M135 0v-1490h305v602h649v-602h306V0h-306v-635H440V0H135" id="ao"/><g id="B"><use transform="matrix(0.010850694444444444,0,0,0.010850694444444444,0,0)" xlink:href="#ao"/><use transform="matrix(0.010850694444444444,0,0,0.010850694444444444,16.6015625,0)" xlink:href="#I"/><use transform="matrix(0.010850694444444444,0,0,0.010850694444444444,22.840711805555554,0)" xlink:href="#G"/><use transform="matrix(0.010850694444444444,0,0,0.010850694444444444,37.39149305555556,0)" xlink:href="#C"/><use transform="matrix(0.010850694444444444,0,0,0.010850694444444444,51.51909722222223,0)" xlink:href="#J"/><use transform="matrix(0.010850694444444444,0,0,0.010850694444444444,68.64149305555556,0)" xlink:href="#D"/><use transform="matrix(0.010850694444444444,0,0,0.010850694444444444,83.23567708333333,0)" xlink:href="#I"/><use transform="matrix(0.010850694444444444,0,0,0.010850694444444444,89.47482638888889,0)" xlink:href="#E"/><use transform="matrix(0.010850694444444444,0,0,0.010850694444444444,106.06553819444444,0)" xlink:href="#P"/><use transform="matrix(0.010850694444444444,0,0,0.010850694444444444,118.6306423611111,0)" xlink:href="#L"/><use transform="matrix(0.010850694444444444,0,0,0.010850694444444444,128.33116319444446,0)" xlink:href="#H"/><use transform="matrix(0.010850694444444444,0,0,0.010850694444444444,144.7699652777778,0)" xlink:href="#J"/><use transform="matrix(0.010850694444444444,0,0,0.010850694444444444,161.89236111111114,0)" xlink:href="#F"/><use transform="matrix(0.010850694444444444,0,0,0.010850694444444444,178.8302951388889,0)" xlink:href="#C"/><use transform="matrix(0.010850694444444444,0,0,0.010850694444444444,193.66319444444443,0)" xlink:href="#D"/><use transform="matrix(0.010850694444444444,0,0,0.010850694444444444,208.25737847222223,0)" xlink:href="#E"/><use transform="matrix(0.010850694444444444,0,0,0.010850694444444444,224.51171875,0)" xlink:href="#G"/><use transform="matrix(0.010850694444444444,0,0,0.010850694444444444,239.0625,0)" xlink:href="#O"/><use transform="matrix(0.010850694444444444,0,0,0.010850694444444444,252.56076388888889,0)" xlink:href="#F"/><use transform="matrix(0.010850694444444444,0,0,0.010850694444444444,269.4986979166667,0)" xlink:href="#E"/></g></defs></g></svg>