<svg xmlns="http://www.w3.org/2000/svg" xmlns:xlink="http://www.w3.org/1999/xlink" version="1.1" width="1590" height="1250" style="width: 1590px; height: 1250px; background: #ffffff" viewBox="0 0 1590 1250"><style id="v-3" type="text/css">        .joint-element .scalable * {            vector-effect: non-scaling-stroke;        }    </style><defs joint-selector="defs"><marker id="v-21252848929" orient="auto" overflow="visible" markerUnits="userSpaceOnUse"><path id="v-71" stroke="#444444" fill="#444444" transform="rotate(180)" d="M 20 -10 0 0 20 10 Z"></path></marker></defs><g joint-selector="layers"  transform="matrix(1,0,0,1,0,0)"><g  style="pointer-events: none;"></g><g ></g><g  style="user-select: none;"><!--z-index:0--><!--z-index:1--><!--z-index:2--><!--z-index:3--><!--z-index:4--><!--z-index:5--><!--z-index:6--><!--z-index:7--><g   id="j_100"  transform="translate(20,1206)"><g id="v-920"><text  id="v-921" font-size="24px" xml:space="preserve" y="0.8em" font-weight="normal" text-anchor="start" fill="#444444" pointer-events="none" display="block" font-family="Tahoma, Verdana, Helvetica, Arial"><tspan dy="0" >Tuesday, 7 April 2026 at 03:21 Colombia Standard Time</tspan></text></g></g><!--z-index:8--><g   id="j_99"  transform="translate(20,1172)"><g id="v-918"><text  id="v-919" font-size="24px" xml:space="preserve" y="0.8em" font-weight="normal" text-anchor="start" fill="#444444" pointer-events="none" display="block" font-family="Tahoma, Verdana, Helvetica, Arial"><tspan dy="0" >Diagrama de Contexto C4 del Sistema</tspan></text></g></g><!--z-index:9--><g   id="j_98"  transform="translate(20,1126)"><g id="v-916"><text  id="v-917" font-size="36px" xml:space="preserve" y="0.8em" font-weight="normal" text-anchor="start" fill="#444444" pointer-events="none" display="block" font-family="Tahoma, Verdana, Helvetica, Arial"><tspan dy="0" >System Context View: Banco Digital Backend</tspan></text></g></g><!--z-index:10--><g   id="j_101"  transform="translate(200,593)" style=""><g  id="v-928" style="opacity: 1;"><rect  x="0" y="160" width="400" height="240" rx="70" id="v-930" stroke-width="2" pointer-events="visiblePainted" fill="#08427b" stroke="#073b6f" stroke-dasharray="" style="fill: rgb(8, 66, 123); stroke: rgb(7, 59, 111);"></rect><circle  cx="200" cy="88.88888888888889" r="88.88888888888889" id="v-929" stroke-width="2" pointer-events="visiblePainted" fill="#08427b" stroke="#073b6f" stroke-dasharray="" style="fill: rgb(8, 66, 123); stroke: rgb(7, 59, 111);"></circle><line  x1="80" y1="266.6666666666667" x2="80" y2="400" id="v-936" stroke="#073b6f" stroke-width="1" stroke-dasharray="" style="stroke: rgb(7, 59, 111);"></line><line  x1="320" y1="266.6666666666667" x2="320" y2="400" id="v-937" stroke="#073b6f" stroke-width="1" stroke-dasharray="" style="stroke: rgb(7, 59, 111);"></line><text  id="v-931" font-size="33.599999999999994px" xml:space="preserve" y="202.5" font-weight="bold" text-anchor="middle" pointer-events="visible" font-family="Tahoma, Verdana, Helvetica, Arial" fill="#ffffff" dominant-baseline="hanging" transform="matrix(1,0,0,1,200,0)" style="fill: rgb(255, 255, 255);"><tspan dy="0" >Cliente del Banco</tspan></text><text  id="v-932" font-size="16.799999999999997px" xml:space="preserve" y="244.1" text-anchor="middle" font-family="Tahoma, Verdana, Helvetica, Arial" fill="#ffffff" dominant-baseline="hanging" transform="matrix(1,0,0,1,200,0)" style="display: block; fill: rgb(255, 255, 255);"><tspan dy="0" >[Person]</tspan></text><text  id="v-933" font-size="24px" xml:space="preserve" y="275.9" text-anchor="middle" font-family="Tahoma, Verdana, Helvetica, Arial" fill="#ffffff" dominant-baseline="hanging" transform="matrix(1,0,0,1,200,0)" style="display: block; fill: rgb(255, 255, 255);"><tspan dy="0" >Un cliente que interactúa con</tspan><tspan dy="1.2em" x="0" >el banco digital a través de la</tspan><tspan dy="1.2em" x="0" >interfaz web.</tspan></text><g  id="v-934" font-weight="normal" text-anchor="middle" color="#ffffff" transform="matrix(1,0,0,1,197.5,368)" style="fill: rgb(255, 255, 255);" display="none"><g ></g><g ></g><g ></g><g ></g></g><image  id="v-935"></image></g></g><!--z-index:11--><g   id="j_102"  transform="translate(200,143)" style=""><g  id="v-944" style="opacity: 1;"><rect  x="0" y="160" width="400" height="240" rx="70" id="v-946" stroke-width="2" pointer-events="visiblePainted" fill="#08427b" stroke="#073b6f" stroke-dasharray="" style="fill: rgb(8, 66, 123); stroke: rgb(7, 59, 111);"></rect><circle  cx="200" cy="88.88888888888889" r="88.88888888888889" id="v-945" stroke-width="2" pointer-events="visiblePainted" fill="#08427b" stroke="#073b6f" stroke-dasharray="" style="fill: rgb(8, 66, 123); stroke: rgb(7, 59, 111);"></circle><line  x1="80" y1="266.6666666666667" x2="80" y2="400" id="v-952" stroke="#073b6f" stroke-width="1" stroke-dasharray="" style="stroke: rgb(7, 59, 111);"></line><line  x1="320" y1="266.6666666666667" x2="320" y2="400" id="v-953" stroke="#073b6f" stroke-width="1" stroke-dasharray="" style="stroke: rgb(7, 59, 111);"></line><text  id="v-947" font-size="33.599999999999994px" xml:space="preserve" y="182.34" font-weight="bold" text-anchor="middle" pointer-events="visible" font-family="Tahoma, Verdana, Helvetica, Arial" fill="#ffffff" dominant-baseline="hanging" transform="matrix(1,0,0,1,200,0)" style="fill: rgb(255, 255, 255);"><tspan dy="0" >Personal del Banco</tspan><tspan dy="1.2em" x="0" >(Cajero/Admin)</tspan></text><text  id="v-948" font-size="16.799999999999997px" xml:space="preserve" y="264.26" text-anchor="middle" font-family="Tahoma, Verdana, Helvetica, Arial" fill="#ffffff" dominant-baseline="hanging" transform="matrix(1,0,0,1,200,0)" style="display: block; fill: rgb(255, 255, 255);"><tspan dy="0" >[Person]</tspan></text><text  id="v-949" font-size="24px" xml:space="preserve" y="296.06" text-anchor="middle" font-family="Tahoma, Verdana, Helvetica, Arial" fill="#ffffff" dominant-baseline="hanging" transform="matrix(1,0,0,1,200,0)" style="display: block; fill: rgb(255, 255, 255);"><tspan dy="0" >Empleado del banco que</tspan><tspan dy="1.2em" x="0" >gestiona clientes, cuentas y</tspan><tspan dy="1.2em" x="0" >configuraciones.</tspan></text><g  id="v-950" font-weight="normal" text-anchor="middle" color="#ffffff" transform="matrix(1,0,0,1,197.5,368)" style="fill: rgb(255, 255, 255);" display="none"><g ></g><g ></g><g ></g><g ></g></g><image  id="v-951"></image></g></g><!--z-index:12--><g   id="j_103"  transform="translate(940,418)" style=""><g  id="v-960" style="opacity: 1;"><rect  id="v-961" rx="20" ry="20" stroke-width="2" pointer-events="visiblePainted" fill="#1168bd" stroke="#0f5eaa" stroke-dasharray="" width="450" height="300" style="fill: rgb(17, 104, 189); stroke: rgb(15, 94, 170);"></rect><text  id="v-962" font-size="33.599999999999994px" xml:space="preserve" y="72.5" font-weight="bold" text-anchor="middle" pointer-events="visible" font-family="Tahoma, Verdana, Helvetica, Arial" fill="#ffffff" dominant-baseline="hanging" transform="matrix(1,0,0,1,225,0)" style="fill: rgb(255, 255, 255);"><tspan dy="0" >Banco Digital Backend</tspan></text><text  id="v-963" font-size="16.799999999999997px" xml:space="preserve" y="114.1" text-anchor="middle" font-family="Tahoma, Verdana, Helvetica, Arial" fill="#ffffff" dominant-baseline="hanging" transform="matrix(1,0,0,1,225,0)" style="display: block; fill: rgb(255, 255, 255);"><tspan dy="0" >[Software System]</tspan></text><text  id="v-964" font-size="24px" xml:space="preserve" y="145.89999999999998" text-anchor="middle" font-family="Tahoma, Verdana, Helvetica, Arial" fill="#ffffff" dominant-baseline="hanging" transform="matrix(1,0,0,1,225,0)" style="display: block; fill: rgb(255, 255, 255);"><tspan dy="0" >Proporciona la lógica de negocio</tspan><tspan dy="1.2em" x="0" >central, incluyendo gestión de</tspan><tspan dy="1.2em" x="0" >cuentas, clientes y autenticación.</tspan></text><g  id="v-965" color="#ffffff" transform="matrix(1,0,0,1,210,268)" style="fill: rgb(255, 255, 255);" display="none"><g  transform="translate(5 0)"><svg xmlns="http://www.w3.org/2000/svg" width="20" height="20" fill="currentColor" viewBox="0 0 16 16"><path fill-rule="evenodd" d="M6.5 12a5.5 5.5 0 1 0 0-11 5.5 5.5 0 0 0 0 11zM13 6.5a6.5 6.5 0 1 1-13 0 6.5 6.5 0 0 1 13 0z"></path><path d="M10.344 11.742c.03.04.062.078.098.115l3.85 3.85a1 1 0 0 0 1.415-1.414l-3.85-3.85a1.007 1.007 0 0 0-.115-.1 6.538 6.538 0 0 1-1.398 1.4z"></path><path fill-rule="evenodd" d="M6.5 3a.5.5 0 0 1 .5.5V6h2.5a.5.5 0 0 1 0 1H7v2.5a.5.5 0 0 1-1 0V7H3.5a.5.5 0 0 1 0-1H6V3.5a.5.5 0 0 1 .5-.5z"></path></svg></g><g ></g><g ></g><g ></g></g><image  id="v-966"></image></g></g><!--z-index:13--><g   id="j_104"  style="opacity: 1;"><path fill="none" cursor="pointer" stroke="transparent" stroke-linecap="round" joint-selector="wrapper" id="v-981" stroke-width="10" stroke-linejoin="round" d="M 600 343 L 760 343 C 766.6666666666665 343 772.9999999999999 344.66666666666663 779 348 L 940 439.84" style="stroke-width: 10px;"></path><path fill="none" pointer-events="none" joint-selector="line" id="v-980" stroke="#444444" stroke-width="2" stroke-linejoin="round" stroke-dasharray="8 8" d="M 600 343 L 760 343 C 766.6666666666665 343 772.9999999999999 344.66666666666663 779 348 L 940 439.84" marker-end="url(#v-21252848929)"></path><g id="v-970" ><g id="v-971"  label-idx="0" cursor="move" transform="matrix(1,0,0,1,769.712890625,330.8402404785156)" style="cursor: default;"><rect joint-selector="rect" id="v-975" fill="#ffffff" rx="3" ry="3" x="-97.57536315917969" y="-61.28268051147461" width="195.15072631835938" height="120.11024475097656" pointer-events="none"  style="display: block;"></rect><text joint-selector="text" id="v-974" font-size="24px" xml:space="preserve" fill="#444444" text-anchor="middle" pointer-events="none" font-family="Tahoma, Verdana, Helvetica, Arial" font-weight="normal"  style="display: block;"><tspan dy="-1.4999999999999998em" >Gestiona</tspan><tspan dy="1.2em" x="0" >usuarios, clientes</tspan><tspan dy="1.2em" x="0" >y configura</tspan><tspan dy="1.2em" x="0" >cuentas vía API</tspan></text></g><g id="v-972"  label-idx="1" cursor="move" transform="matrix(1,0,0,1,769.712890625,404.44024658203125)" style="cursor: default;"><rect joint-selector="rect" id="v-977" fill="#ffffff" rx="3" ry="3" x="-54.58163070678711" y="-11.815123558044434" width="109.26176452636719" height="22.47349739074707"  pointer-events="none" style="display: block;"></rect><text joint-selector="text" id="v-976" font-size="16.799999999999997px" xml:space="preserve" fill="#444444" text-anchor="middle" pointer-events="none" font-family="Tahoma, Verdana, Helvetica, Arial" font-weight="normal"  style="display: block;"><tspan dy="0.3em" >[JSON/HTTPS]</tspan></text></g><g id="v-973"  label-idx="2" cursor="move" transform="matrix(1,0,0,1,771.3849487304688,417.96044921875)" style="cursor: default;"><rect joint-selector="rect" id="v-979" fill="#ffffff" rx="3" ry="3" x="0" y="0" width="0" height="0"  display="none"></rect><text joint-selector="text" id="v-978" fill="#000000" font-size="14" text-anchor="middle" text-vertical-anchor="middle" pointer-events="none"></text></g></g></g><!--z-index:14--><g   id="j_105"  style="opacity: 1;"><path fill="none" cursor="pointer" stroke="transparent" stroke-linecap="round" joint-selector="wrapper" id="v-996" stroke-width="10" stroke-linejoin="round" d="M 600 793 L 760 793 C 766.6666666666665 793 772.9999999999999 791.3333333333333 779 788 L 940 696.16" style="stroke-width: 10px;"></path><path fill="none" pointer-events="none" joint-selector="line" id="v-995" stroke="#444444" stroke-width="2" stroke-linejoin="round" stroke-dasharray="8 8" d="M 600 793 L 760 793 C 766.6666666666665 793 772.9999999999999 791.3333333333333 779 788 L 940 696.16" marker-end="url(#v-21252848929)"></path><g id="v-985" ><g id="v-986"  label-idx="0" cursor="move" transform="matrix(1,0,0,1,769.712890625,778.3597412109375)" style="cursor: default;"><rect joint-selector="rect" id="v-990" fill="#ffffff" rx="3" ry="3" x="-97.77288055419922" y="-61.28268051147461" width="197.362548828125" height="120.11024475097656" pointer-events="none"  style="display: block;"></rect><text joint-selector="text" id="v-989" font-size="24px" xml:space="preserve" fill="#444444" text-anchor="middle" pointer-events="none" font-family="Tahoma, Verdana, Helvetica, Arial" font-weight="normal"  style="display: block;"><tspan dy="-1.4999999999999998em" >Consulta saldos y</tspan><tspan dy="1.2em" x="0" >realiza</tspan><tspan dy="1.2em" x="0" >operaciones</tspan><tspan dy="1.2em" x="0" >bancarias vía API</tspan></text></g><g id="v-987"  label-idx="1" cursor="move" transform="matrix(1,0,0,1,769.712890625,851.959716796875)" style="cursor: default;"><rect joint-selector="rect" id="v-992" fill="#ffffff" rx="3" ry="3" x="-54.58163070678711" y="-11.815123558044434" width="109.26176452636719" height="22.47349739074707"  pointer-events="none" style="display: block;"></rect><text joint-selector="text" id="v-991" font-size="16.799999999999997px" xml:space="preserve" fill="#444444" text-anchor="middle" pointer-events="none" font-family="Tahoma, Verdana, Helvetica, Arial" font-weight="normal"  style="display: block;"><tspan dy="0.3em" >[JSON/HTTPS]</tspan></text></g><g id="v-988"  label-idx="2" cursor="move" transform="matrix(1,0,0,1,771.3849487304688,855.2395629882812)" style="cursor: default;"><rect joint-selector="rect" id="v-994" fill="#ffffff" rx="3" ry="3" x="0" y="-1.1368683772161603e-13" width="0" height="0"  display="none"></rect><text joint-selector="text" id="v-993" fill="#000000" font-size="14" text-anchor="middle" text-vertical-anchor="middle" pointer-events="none"></text></g></g></g><!--z-index:15--><!--z-index:16--><!--z-index:17--><!--z-index:18--><!--z-index:19--><!--z-index:20--><!--z-index:21--></g><g  style="user-select: none;"></g><g ></g><g  display="none"></g></g></svg>