<svg xmlns="http://www.w3.org/2000/svg" xmlns:xlink="http://www.w3.org/1999/xlink" version="1.1" width="2480" height="1250" style="width: 2480px; height: 1250px; background: #ffffff" viewBox="0 0 2480 1250"><style id="v-3" type="text/css">        .joint-element .scalable * {            vector-effect: non-scaling-stroke;        }    </style><defs joint-selector="defs"><marker id="v-21252848929" orient="auto" overflow="visible" markerUnits="userSpaceOnUse"><path id="v-71" stroke="#444444" fill="#444444" transform="rotate(180)" d="M 20 -10 0 0 20 10 Z"></path></marker></defs><g joint-selector="layers"  transform="matrix(1,0,0,1,0,0)"><g  style="pointer-events: none;"></g><g ></g><g  style="user-select: none;"><!--z-index:0--><!--z-index:1--><!--z-index:2--><!--z-index:3--><!--z-index:4--><!--z-index:5--><!--z-index:6--><!--z-index:7--><!--z-index:8--><!--z-index:9--><!--z-index:10--><g   id="j_108"  transform="translate(20,1206)"><g id="v-1001"><text  id="v-1002" font-size="24px" xml:space="preserve" y="0.8em" font-weight="normal" text-anchor="start" fill="#444444" pointer-events="none" display="block" font-family="Tahoma, Verdana, Helvetica, Arial"><tspan dy="0" >Tuesday, 7 April 2026 at 03:22 Colombia Standard Time</tspan></text></g></g><!--z-index:11--><g   id="j_107"  transform="translate(20,1172)"><g id="v-999"><text  id="v-1000" font-size="24px" xml:space="preserve" y="0.8em" font-weight="normal" text-anchor="start" fill="#444444" pointer-events="none" display="block" font-family="Tahoma, Verdana, Helvetica, Arial"><tspan dy="0" >Diagrama de Contenedores C4 del Backend</tspan></text></g></g><!--z-index:12--><g   id="j_106"  transform="translate(20,1126)"><g id="v-997"><text  id="v-998" font-size="36px" xml:space="preserve" y="0.8em" font-weight="normal" text-anchor="start" fill="#444444" pointer-events="none" display="block" font-family="Tahoma, Verdana, Helvetica, Arial"><tspan dy="0" >Container View: Banco Digital Backend</tspan></text></g></g><!--z-index:13--><g   id="j_109"  transform="translate(200,142)" style=""><g  id="v-1009" style="opacity: 1;"><rect  x="0" y="160" width="400" height="240" rx="70" id="v-1011" stroke-width="2" pointer-events="visiblePainted" fill="#08427b" stroke="#073b6f" stroke-dasharray="" style="fill: rgb(8, 66, 123); stroke: rgb(7, 59, 111);"></rect><circle  cx="200" cy="88.88888888888889" r="88.88888888888889" id="v-1010" stroke-width="2" pointer-events="visiblePainted" fill="#08427b" stroke="#073b6f" stroke-dasharray="" style="fill: rgb(8, 66, 123); stroke: rgb(7, 59, 111);"></circle><line  x1="80" y1="266.6666666666667" x2="80" y2="400" id="v-1017" stroke="#073b6f" stroke-width="1" stroke-dasharray="" style="stroke: rgb(7, 59, 111);"></line><line  x1="320" y1="266.6666666666667" x2="320" y2="400" id="v-1018" stroke="#073b6f" stroke-width="1" stroke-dasharray="" style="stroke: rgb(7, 59, 111);"></line><text  id="v-1012" font-size="33.599999999999994px" xml:space="preserve" y="202.5" font-weight="bold" text-anchor="middle" pointer-events="visible" font-family="Tahoma, Verdana, Helvetica, Arial" fill="#ffffff" dominant-baseline="hanging" transform="matrix(1,0,0,1,200,0)" style="fill: rgb(255, 255, 255);"><tspan dy="0" >Cliente del Banco</tspan></text><text  id="v-1013" font-size="16.799999999999997px" xml:space="preserve" y="244.1" text-anchor="middle" font-family="Tahoma, Verdana, Helvetica, Arial" fill="#ffffff" dominant-baseline="hanging" transform="matrix(1,0,0,1,200,0)" style="display: block; fill: rgb(255, 255, 255);"><tspan dy="0" >[Person]</tspan></text><text  id="v-1014" font-size="24px" xml:space="preserve" y="275.9" text-anchor="middle" font-family="Tahoma, Verdana, Helvetica, Arial" fill="#ffffff" dominant-baseline="hanging" transform="matrix(1,0,0,1,200,0)" style="display: block; fill: rgb(255, 255, 255);"><tspan dy="0" >Un cliente que interactúa con</tspan><tspan dy="1.2em" x="0" >el banco digital a través de la</tspan><tspan dy="1.2em" x="0" >interfaz web.</tspan></text><g  id="v-1015" font-weight="normal" text-anchor="middle" color="#ffffff" transform="matrix(1,0,0,1,197.5,368)" style="fill: rgb(255, 255, 255);" display="none"><g ></g><g ></g><g ></g><g ></g></g><image  id="v-1016"></image></g></g><!--z-index:14--><g   id="j_110"  transform="translate(200,592)" style=""><g  id="v-1025" style="opacity: 1;"><rect  x="0" y="160" width="400" height="240" rx="70" id="v-1027" stroke-width="2" pointer-events="visiblePainted" fill="#08427b" stroke="#073b6f" stroke-dasharray="" style="fill: rgb(8, 66, 123); stroke: rgb(7, 59, 111);"></rect><circle  cx="200" cy="88.88888888888889" r="88.88888888888889" id="v-1026" stroke-width="2" pointer-events="visiblePainted" fill="#08427b" stroke="#073b6f" stroke-dasharray="" style="fill: rgb(8, 66, 123); stroke: rgb(7, 59, 111);"></circle><line  x1="80" y1="266.6666666666667" x2="80" y2="400" id="v-1033" stroke="#073b6f" stroke-width="1" stroke-dasharray="" style="stroke: rgb(7, 59, 111);"></line><line  x1="320" y1="266.6666666666667" x2="320" y2="400" id="v-1034" stroke="#073b6f" stroke-width="1" stroke-dasharray="" style="stroke: rgb(7, 59, 111);"></line><text  id="v-1028" font-size="33.599999999999994px" xml:space="preserve" y="182.34" font-weight="bold" text-anchor="middle" pointer-events="visible" font-family="Tahoma, Verdana, Helvetica, Arial" fill="#ffffff" dominant-baseline="hanging" transform="matrix(1,0,0,1,200,0)" style="fill: rgb(255, 255, 255);"><tspan dy="0" >Personal del Banco</tspan><tspan dy="1.2em" x="0" >(Cajero/Admin)</tspan></text><text  id="v-1029" font-size="16.799999999999997px" xml:space="preserve" y="264.26" text-anchor="middle" font-family="Tahoma, Verdana, Helvetica, Arial" fill="#ffffff" dominant-baseline="hanging" transform="matrix(1,0,0,1,200,0)" style="display: block; fill: rgb(255, 255, 255);"><tspan dy="0" >[Person]</tspan></text><text  id="v-1030" font-size="24px" xml:space="preserve" y="296.06" text-anchor="middle" font-family="Tahoma, Verdana, Helvetica, Arial" fill="#ffffff" dominant-baseline="hanging" transform="matrix(1,0,0,1,200,0)" style="display: block; fill: rgb(255, 255, 255);"><tspan dy="0" >Empleado del banco que</tspan><tspan dy="1.2em" x="0" >gestiona clientes, cuentas y</tspan><tspan dy="1.2em" x="0" >configuraciones.</tspan></text><g  id="v-1031" font-weight="normal" text-anchor="middle" color="#ffffff" transform="matrix(1,0,0,1,197.5,368)" style="fill: rgb(255, 255, 255);" display="none"><g ></g><g ></g><g ></g><g ></g></g><image  id="v-1032"></image></g></g><!--z-index:15--><g   id="j_112"  transform="translate(940,367)" style="; opacity: 1;"><g id="v-1046"><rect  id="v-1047" width="1340" height="479" rx="20" ry="20" stroke-width="2" pointer-events="none" stroke="#0f5eaa" fill="#ffffff" opacity="1" stroke-dasharray=""></rect><text  id="v-1048" font-size="33.599999999999994px" xml:space="preserve" y="440" font-weight="bold" text-anchor="start" pointer-events="visible" font-family="Tahoma, Verdana, Helvetica, Arial" fill="#1168bd" transform="matrix(1,0,0,1,15,0)"><tspan dy="0" >Banco Digital Backend</tspan></text><text  id="v-1049" font-size="16.799999999999997px" xml:space="preserve" y="464" font-weight="normal" text-anchor="start" pointer-events="visible" font-family="Tahoma, Verdana, Helvetica, Arial" fill="#1168bd" transform="matrix(1,0,0,1,15,0)"><tspan dy="0" >[Software System]</tspan></text><image  id="v-1050" pointer-events="visible"></image></g></g><!--z-index:16--><g   id="j_111"  transform="translate(1780,417)" style=""><g  id="v-1038" style="opacity: 1;"><path  d="M 0,30 a 225,30 0,0,0 450 0 a 225,30 0,0,0 -450 0 l 0,240 a 225,30 0,0,0 450 0 l 0,-240" id="v-1039" stroke-width="2" pointer-events="visiblePainted" fill="#438dd5" stroke="#3c7fc0" stroke-dasharray="" style="fill: rgb(67, 141, 213); stroke: rgb(60, 127, 192);"></path><rect  id="v-1040" stroke-width="0" pointer-events="visiblePainted" fill="none" stroke="none" width="450" height="270" x="0" y="30"></rect><text  id="v-1041" font-size="33.599999999999994px" xml:space="preserve" y="87.5" font-weight="bold" text-anchor="middle" pointer-events="visible" font-family="Tahoma, Verdana, Helvetica, Arial" fill="#ffffff" dominant-baseline="hanging" transform="matrix(1,0,0,1,225,0)" style="fill: rgb(255, 255, 255);"><tspan dy="0" >Database</tspan></text><text  id="v-1042" font-size="16.799999999999997px" xml:space="preserve" y="129.1" text-anchor="middle" font-family="Tahoma, Verdana, Helvetica, Arial" fill="#ffffff" dominant-baseline="hanging" transform="matrix(1,0,0,1,225,0)" style="display: block; fill: rgb(255, 255, 255);"><tspan dy="0" >[Container: PostgreSQL]</tspan></text><text  id="v-1043" font-size="24px" xml:space="preserve" y="160.89999999999998" text-anchor="middle" font-family="Tahoma, Verdana, Helvetica, Arial" fill="#ffffff" dominant-baseline="hanging" transform="matrix(1,0,0,1,225,0)" style="display: block; fill: rgb(255, 255, 255);"><tspan dy="0" >Almacena información de</tspan><tspan dy="1.2em" x="0" >usuarios, clientes, cuentas,</tspan><tspan dy="1.2em" x="0" >transacciones de auditoría y roles.</tspan></text><g  id="v-1044" font-weight="normal" text-anchor="middle" color="#ffffff" transform="matrix(1,0,0,1,222.5,268)" style="fill: rgb(255, 255, 255);" display="none"><g ></g><g ></g><g ></g><g ></g></g><image  id="v-1045"></image></g></g><!--z-index:17--><g   id="j_113"  transform="translate(990,417)" style=""><g  id="v-1057" style="opacity: 1;"><rect  id="v-1058" rx="20" ry="20" stroke-width="2" pointer-events="visiblePainted" fill="#438dd5" stroke="#3c7fc0" stroke-dasharray="" width="450" height="300" style="fill: rgb(67, 141, 213); stroke: rgb(60, 127, 192);"></rect><text  id="v-1059" font-size="33.599999999999994px" xml:space="preserve" y="58.10000000000001" font-weight="bold" text-anchor="middle" pointer-events="visible" font-family="Tahoma, Verdana, Helvetica, Arial" fill="#ffffff" dominant-baseline="hanging" transform="matrix(1,0,0,1,225,0)" style="fill: rgb(255, 255, 255);"><tspan dy="0" >API Application</tspan></text><text  id="v-1060" font-size="16.799999999999997px" xml:space="preserve" y="99.7" text-anchor="middle" font-family="Tahoma, Verdana, Helvetica, Arial" fill="#ffffff" dominant-baseline="hanging" transform="matrix(1,0,0,1,225,0)" style="display: block; fill: rgb(255, 255, 255);"><tspan dy="0" >[Container: Java and Spring Boot]</tspan></text><text  id="v-1061" font-size="24px" xml:space="preserve" y="131.5" text-anchor="middle" font-family="Tahoma, Verdana, Helvetica, Arial" fill="#ffffff" dominant-baseline="hanging" transform="matrix(1,0,0,1,225,0)" style="display: block; fill: rgb(255, 255, 255);"><tspan dy="0" >Proporciona los endpoints REST</tspan><tspan dy="1.2em" x="0" >usando una Arquitectura</tspan><tspan dy="1.2em" x="0" >Hexagonal (Puertos y</tspan><tspan dy="1.2em" x="0" >Adaptadores).</tspan></text><g  id="v-1062" color="#ffffff" transform="matrix(1,0,0,1,210,268)" style="fill: rgb(255, 255, 255);" display="none"><g  transform="translate(5 0)"><svg xmlns="http://www.w3.org/2000/svg" width="20" height="20" fill="currentColor" viewBox="0 0 16 16"><path fill-rule="evenodd" d="M6.5 12a5.5 5.5 0 1 0 0-11 5.5 5.5 0 0 0 0 11zM13 6.5a6.5 6.5 0 1 1-13 0 6.5 6.5 0 0 1 13 0z"></path><path d="M10.344 11.742c.03.04.062.078.098.115l3.85 3.85a1 1 0 0 0 1.415-1.414l-3.85-3.85a1.007 1.007 0 0 0-.115-.1 6.538 6.538 0 0 1-1.398 1.4z"></path><path fill-rule="evenodd" d="M6.5 3a.5.5 0 0 1 .5.5V6h2.5a.5.5 0 0 1 0 1H7v2.5a.5.5 0 0 1-1 0V7H3.5a.5.5 0 0 1 0-1H6V3.5a.5.5 0 0 1 .5-.5z"></path></svg></g><g ></g><g ></g><g ></g></g><image  id="v-1063"></image></g></g><!--z-index:18--><g   id="j_114"  style="opacity: 1;"><path fill="none" cursor="pointer" stroke="transparent" stroke-linecap="round" joint-selector="wrapper" id="v-1078" stroke-width="10" stroke-linejoin="round" d="M 600 342 L 930 342 C 936.6666666666666 342 942.6666666666666 344 948 348 L 1031.67 417"></path><path fill="none" pointer-events="none" joint-selector="line" id="v-1077" stroke="#444444" stroke-width="2" stroke-linejoin="round" stroke-dasharray="8 8" d="M 600 342 L 930 342 C 936.6666666666666 342 942.6666666666666 344 948 348 L 1031.67 417" marker-end="url(#v-21252848929)"></path><g id="v-1067" ><g id="v-1068"  label-idx="0" cursor="move" transform="matrix(1,0,0,1,769.750244140625,328.6000061035156)" style="cursor: default;"><rect joint-selector="rect" id="v-1072" fill="#ffffff" rx="3" ry="3" x="-98.5653076171875" y="-18.390993118286133" width="197.130615234375" height="32.57035446166992" pointer-events="none"  style="display: block;"></rect><text joint-selector="text" id="v-1071" font-size="24px" xml:space="preserve" fill="#444444" text-anchor="middle" pointer-events="none" font-family="Tahoma, Verdana, Helvetica, Arial" font-weight="normal"  style="display: block;"><tspan dy="0.3em" >Hace peticiones a</tspan></text></g><g id="v-1069"  label-idx="1" cursor="move" transform="matrix(1,0,0,1,769.750244140625,359)" style="cursor: default;"><rect joint-selector="rect" id="v-1074" fill="#ffffff" rx="3" ry="3" x="-54.671669006347656" y="-13.57163143157959" width="109.34333801269531" height="23.26453971862793"  pointer-events="none" style="display: block;"></rect><text joint-selector="text" id="v-1073" font-size="16.799999999999997px" xml:space="preserve" fill="#444444" text-anchor="middle" pointer-events="none" font-family="Tahoma, Verdana, Helvetica, Arial" font-weight="normal"  style="display: block;"><tspan dy="0.3em" >[JSON/HTTPS]</tspan></text></g><g id="v-1070"  label-idx="2" cursor="move" transform="matrix(1,0,0,1,818.8826904296875,367.3999938964844)" style="cursor: default;"><rect joint-selector="rect" id="v-1076" fill="#ffffff" rx="3" ry="3" x="-1.1368683772161603e-13" y="-1.1368683772161603e-13" width="0" height="0"  display="none"></rect><text joint-selector="text" id="v-1075" fill="#000000" font-size="14" text-anchor="middle" text-vertical-anchor="middle" pointer-events="none"></text></g></g></g><!--z-index:19--><g   id="j_115"  style="opacity: 1;"><path fill="none" cursor="pointer" stroke="transparent" stroke-linecap="round" joint-selector="wrapper" id="v-1093" stroke-width="10" stroke-linejoin="round" d="M 600 792 L 930 792 C 936.6666666666666 792 942.6666666666666 790 948 786 L 1031.67 717"></path><path fill="none" pointer-events="none" joint-selector="line" id="v-1092" stroke="#444444" stroke-width="2" stroke-linejoin="round" stroke-dasharray="8 8" d="M 600 792 L 930 792 C 936.6666666666666 792 942.6666666666666 790 948 786 L 1031.67 717" marker-end="url(#v-21252848929)"></path><g id="v-1082" ><g id="v-1083"  label-idx="0" cursor="move" transform="matrix(1,0,0,1,769.750244140625,778.5999755859375)" style="cursor: default;"><rect joint-selector="rect" id="v-1087" fill="#ffffff" rx="3" ry="3" x="-98.5653076171875" y="-18.390993118286133" width="197.130615234375" height="32.57035446166992" pointer-events="none"  style="display: block;"></rect><text joint-selector="text" id="v-1086" font-size="24px" xml:space="preserve" fill="#444444" text-anchor="middle" pointer-events="none" font-family="Tahoma, Verdana, Helvetica, Arial" font-weight="normal"  style="display: block;"><tspan dy="0.3em" >Hace peticiones a</tspan></text></g><g id="v-1084"  label-idx="1" cursor="move" transform="matrix(1,0,0,1,769.750244140625,809)" style="cursor: default;"><rect joint-selector="rect" id="v-1089" fill="#ffffff" rx="3" ry="3" x="-54.671669006347656" y="-13.57163143157959" width="109.34333801269531" height="23.26453971862793"  pointer-events="none" style="display: block;"></rect><text joint-selector="text" id="v-1088" font-size="16.799999999999997px" xml:space="preserve" fill="#444444" text-anchor="middle" pointer-events="none" font-family="Tahoma, Verdana, Helvetica, Arial" font-weight="normal"  style="display: block;"><tspan dy="0.3em" >[JSON/HTTPS]</tspan></text></g><g id="v-1085"  label-idx="2" cursor="move" transform="matrix(1,0,0,1,818.8826904296875,817.4000244140625)" style="cursor: default;"><rect joint-selector="rect" id="v-1091" fill="#ffffff" rx="3" ry="3" x="-1.1368683772161603e-13" y="-2.2737367544323206e-13" width="0" height="0"  display="none"></rect><text joint-selector="text" id="v-1090" fill="#000000" font-size="14" text-anchor="middle" text-vertical-anchor="middle" pointer-events="none"></text></g></g></g><!--z-index:20--><g   id="j_116"  style="opacity: 1;"><path fill="none" cursor="pointer" stroke="transparent" stroke-linecap="round" joint-selector="wrapper" id="v-1108" stroke-width="10" stroke-linejoin="round" d="M 1440 567 L 1780 567"></path><path fill="none" pointer-events="none" joint-selector="line" id="v-1107" stroke="#444444" stroke-width="2" stroke-linejoin="round" stroke-dasharray="8 8" d="M 1440 567 L 1780 567" marker-end="url(#v-21252848929)"></path><g id="v-1097" ><g id="v-1098"  label-idx="0" cursor="move" transform="matrix(1,0,0,1,1610,553.5999755859375)" style="cursor: default;"><rect joint-selector="rect" id="v-1102" fill="#ffffff" rx="3" ry="3" x="-72.5381088256836" y="-32.790992736816406" width="145.49606323242188" height="61.37035369873047" pointer-events="none"  style="display: block;"></rect><text joint-selector="text" id="v-1101" font-size="24px" xml:space="preserve" fill="#444444" text-anchor="middle" pointer-events="none" font-family="Tahoma, Verdana, Helvetica, Arial" font-weight="normal"  style="display: block;"><tspan dy="-0.3em" >Lee y escribe</tspan><tspan dy="1.2em" x="0" >datos en</tspan></text></g><g id="v-1099"  label-idx="1" cursor="move" transform="matrix(1,0,0,1,1610,598.4000244140625)" style="cursor: default;"><rect joint-selector="rect" id="v-1104" fill="#ffffff" rx="3" ry="3" x="-43.49378204345703" y="-13.57163143157959" width="86.98756408691406" height="23.26453971862793"  pointer-events="none" style="display: block;"></rect><text joint-selector="text" id="v-1103" font-size="16.799999999999997px" xml:space="preserve" fill="#444444" text-anchor="middle" pointer-events="none" font-family="Tahoma, Verdana, Helvetica, Arial" font-weight="normal"  style="display: block;"><tspan dy="0.3em" >[JDBC/TCP]</tspan></text></g><g id="v-1100"  label-idx="2" cursor="move" transform="matrix(1,0,0,1,1600,606.7999877929688)" style="cursor: default;"><rect joint-selector="rect" id="v-1106" fill="#ffffff" rx="3" ry="3" x="-2.2737367544323206e-13" y="0" width="0" height="0"  display="none"></rect><text joint-selector="text" id="v-1105" fill="#000000" font-size="14" text-anchor="middle" text-vertical-anchor="middle" pointer-events="none"></text></g></g></g><!--z-index:21--></g><g  style="user-select: none;"></g><g ></g><g  display="none"></g></g></svg>